<svg version="1.1" id="Layer_1" xmlns="http://www.w3.org/2000/svg" xmlns:xlink="http://www.w3.org/1999/xlink" x="0px" y="0px"
	 width="100%" viewBox="0 0 1024 704" enable-background="new 0 0 1024 704" xml:space="preserve">
<path fill="#000000" opacity="1.000000" stroke="none" 
	d="
M384.032654,262.970459 
	C383.640106,261.245544 384.164551,260.008026 385.272003,258.483398 
	C389.757996,252.307709 395.012604,246.844528 399.990662,241.108612 
	C409.762299,229.849396 421.832245,221.581909 434.342865,214.385498 
	C443.776337,208.959152 453.587006,203.121124 464.899231,201.613708 
	C468.344147,201.154663 471.298035,199.259140 474.607910,198.288345 
	C487.707672,194.446213 501.001221,194.583939 514.363953,194.562057 
	C518.151245,194.555862 521.938049,194.222458 525.746033,193.689438 
	C520.618164,193.228180 515.690247,192.294479 510.858887,190.484314 
	C508.235321,189.501328 505.254364,190.096802 502.504150,190.997040 
	C498.212555,192.401794 493.778259,192.896942 489.313446,193.509125 
	C483.445770,194.313660 483.883789,189.960892 482.794952,186.750229 
	C481.493805,182.913528 483.950195,181.521225 487.034760,180.997650 
	C499.093506,178.950745 511.274048,179.383667 523.377380,180.047760 
	C534.173767,180.640167 544.743896,183.174622 555.940063,186.086105 
	C561.769714,187.886719 566.890381,189.437836 572.229370,191.250702 
	C584.248474,197.170471 596.130981,202.671585 607.147034,209.912766 
	C605.068359,207.505981 602.760986,205.499817 600.197693,203.904831 
	C591.357910,198.404236 582.381287,193.151459 571.692932,190.837357 
	C566.385132,188.686203 561.940369,184.851776 555.986267,186.019821 
	C555.747253,185.055603 555.565552,183.579727 554.478821,183.712753 
	C549.862000,184.277939 545.696899,182.209579 541.530029,181.137726 
	C533.070435,178.961670 524.367798,178.932358 515.889893,177.072418 
	C509.479065,175.665970 502.732788,175.300186 496.296814,177.658371 
	C494.991241,178.136749 493.735962,178.379517 492.420868,178.319763 
	C483.216187,177.901642 474.730469,181.740372 465.868164,182.828384 
	C455.930542,184.048401 447.389557,188.528961 438.294495,191.764908 
	C436.845367,192.280502 435.285065,192.402939 433.972778,191.476685 
	C432.559601,190.479218 433.554626,189.124039 433.611145,187.847122 
	C434.057831,177.754272 441.006836,171.797012 447.550049,165.548706 
	C449.595520,163.595413 452.060852,161.847473 453.452576,159.486038 
	C458.441650,151.020859 466.624390,148.061951 475.432129,146.331406 
	C480.440094,145.347458 485.087524,143.973618 489.117493,140.728531 
	C494.128082,136.693787 499.311737,138.849274 504.242798,140.825256 
	C508.482391,142.524170 508.023163,146.670914 508.175873,150.304962 
	C508.509277,158.240692 510.830536,160.697937 520.749207,160.509048 
	C530.363037,160.325989 539.117126,163.744614 548.296631,165.286072 
	C554.265869,166.288452 560.066589,167.577850 565.843506,169.378647 
	C572.767578,171.537048 579.266052,174.646515 585.878235,177.488327 
	C604.799316,185.620331 621.555481,197.394165 636.938538,210.752548 
	C643.866577,216.768692 651.570557,222.649475 656.011292,231.441193 
	C657.847107,235.075928 661.605896,237.710815 664.339905,240.928162 
	C667.336365,244.454437 669.919922,248.094528 671.684326,252.612549 
	C673.450562,257.135193 676.899109,261.026672 679.287537,265.437744 
	C682.508301,271.385712 684.817322,277.680634 687.606689,283.776794 
	C689.532959,287.986816 690.756226,292.393982 691.984253,296.683685 
	C693.892761,303.349945 696.561768,309.731476 697.902954,316.738220 
	C699.484863,325.002899 699.775085,333.216156 700.742676,341.438568 
	C701.817078,350.569092 701.706787,359.730774 700.873535,368.820465 
	C700.492188,372.980896 700.592041,377.112915 700.296143,381.246246 
	C700.059998,384.546112 701.490662,388.292725 697.809387,390.755066 
	C697.419800,391.015686 697.339172,392.009338 697.401550,392.634338 
	C698.513611,403.769012 692.615784,413.344666 689.699341,423.402588 
	C686.100952,435.812256 679.112366,447.127014 672.482300,458.494781 
	C667.215027,467.525787 659.718567,474.688049 654.692383,483.761627 
	C652.712646,487.335541 648.408997,489.539459 645.645508,492.778381 
	C639.023254,500.539856 630.699158,506.374084 623.172363,513.101379 
	C621.116882,514.938538 618.588440,517.080688 615.383667,515.560059 
	C614.237122,512.981812 618.619629,510.250458 614.758606,508.243073 
	C611.258789,506.423431 607.668091,506.286194 604.312317,508.549042 
	C600.791443,510.923340 596.917725,512.280273 592.843994,513.312988 
	C588.404358,514.438477 584.361511,516.315735 581.721130,520.370789 
	C580.673340,521.980042 579.062500,522.855225 577.255554,523.385071 
	C574.816406,524.100220 572.639893,525.332458 570.703369,526.935730 
	C566.863647,530.114807 567.257263,533.710754 571.640564,535.903625 
	C572.504517,536.335938 573.617371,536.355103 574.061218,537.539673 
	C566.885376,540.952332 559.872437,544.797180 552.465698,547.601746 
	C548.579529,549.073303 544.097595,549.199463 539.893005,550.034668 
	C525.008301,552.991211 509.882996,551.871826 494.844116,552.399841 
	C483.696198,552.791199 472.745178,550.799805 461.935883,549.358459 
	C452.544403,548.106018 443.160492,544.226990 434.055725,540.427063 
	C427.210297,537.570190 420.134521,534.856445 413.488007,531.745850 
	C405.117371,527.828369 396.918396,523.122559 389.257355,517.618713 
	C378.840546,510.135040 369.918976,500.984894 360.273407,492.657898 
	C355.884552,488.868988 352.941681,483.517609 348.827881,479.224518 
	C342.995117,473.137512 338.417480,465.928772 334.428528,458.518555 
	C331.468872,453.020538 327.897552,447.911530 325.185394,442.185913 
	C322.298889,436.092163 319.740356,429.744324 317.638306,423.535950 
	C315.779297,418.045319 312.895477,412.829498 311.911804,406.612274 
	C311.040833,401.107300 310.885376,394.411346 307.298370,389.208038 
	C306.474823,388.013367 306.689087,386.644653 306.687805,385.334412 
	C306.669098,366.336273 305.690735,347.259705 307.198425,328.382141 
	C307.731781,321.703827 307.812012,313.828552 312.051514,307.466553 
	C312.707947,306.481506 312.608521,304.902832 312.619843,303.596619 
	C312.643005,300.927521 313.140503,298.803925 314.990814,296.430267 
	C317.631866,293.042175 317.584961,288.244568 319.408478,284.169861 
	C323.036438,276.063202 325.809753,267.609711 330.860077,260.144623 
	C334.735657,254.415909 337.973694,248.255035 341.864868,242.537933 
	C345.268005,237.537933 349.469513,233.123871 353.058411,228.218521 
	C355.421875,224.988083 355.285004,221.513046 354.220612,218.886475 
	C353.056824,216.014694 350.602142,212.962128 346.688995,212.421951 
	C344.724152,212.150742 343.331482,212.519348 341.994598,214.299561 
	C338.270172,219.259247 333.852203,223.733627 330.440491,228.884720 
	C324.561523,237.760925 318.069855,246.527054 314.089447,256.261108 
	C311.430054,262.764496 306.792633,268.357941 305.594452,275.832062 
	C305.014465,279.450195 302.128632,283.723755 300.588501,287.652161 
	C296.510040,298.054962 295.634583,309.428528 292.813843,320.104462 
	C290.187683,330.043854 292.547119,340.109253 289.882874,349.298431 
	C285.728210,363.628265 292.851593,377.218628 290.386993,391.138367 
	C295.497742,398.089600 292.824768,406.997284 296.449402,414.716949 
	C298.356201,418.778015 300.279877,424.180511 300.372803,429.459045 
	C300.435730,433.033203 302.657532,436.337280 304.106018,439.246460 
	C307.039856,445.139008 309.927643,451.308502 312.384888,457.214630 
	C315.258026,464.120392 319.533600,470.102325 322.882141,476.576294 
	C325.288391,481.228516 328.816620,485.750702 332.052246,490.187653 
	C337.971588,498.304657 344.420410,505.958374 351.301575,513.242188 
	C360.357819,522.828430 370.389191,531.207275 381.302887,538.725098 
	C388.395355,543.610718 395.165283,549.173950 402.772369,553.068115 
	C409.068176,556.291016 414.492615,561.839417 421.036377,563.296814 
	C430.992523,565.514282 439.587219,571.089233 449.615387,572.902527 
	C457.951813,574.409851 466.049225,577.210815 474.286957,579.303223 
	C479.235870,580.560181 484.620148,579.341064 489.380920,581.894897 
	C490.232941,582.351929 491.352570,582.321838 491.804810,583.409180 
	C485.876129,592.385864 489.781616,601.971313 500.816315,603.737366 
	C524.478760,607.524292 547.863464,612.871826 571.799866,615.226440 
	C585.326294,616.557007 598.562256,620.508423 612.222534,621.633972 
	C617.352539,622.056702 622.441833,622.901245 627.616882,623.146240 
	C639.586609,623.712830 643.366089,630.357544 638.940552,641.373901 
	C636.571472,647.271240 632.631531,650.903076 627.126587,653.478943 
	C623.228088,655.302979 619.115540,656.863159 616.171082,660.282104 
	C613.179382,663.755920 613.735779,666.204773 618.070190,667.801147 
	C619.616516,668.370667 621.294373,668.857727 622.921570,668.888489 
	C633.185486,669.082764 643.512329,670.885376 653.652954,667.606995 
	C658.559326,666.020813 662.823059,667.957947 666.805359,670.634460 
	C668.056091,671.475159 669.263977,672.612061 668.936340,674.311646 
	C668.624207,675.930298 667.006348,675.960449 665.755432,676.266541 
	C663.814697,676.741455 661.826172,677.525452 659.890869,677.438965 
	C642.674072,676.669739 626.817505,684.749573 609.744141,685.011780 
	C604.371155,685.094299 599.491272,687.435425 594.285400,690.663696 
	C598.165527,693.036438 601.282715,695.557800 604.840454,696.966370 
	C609.559143,698.834778 612.960083,702.609253 617.730103,704.837402 
	C539.312439,705.000000 460.624878,705.000000 381.468658,705.000000 
	C383.642517,696.903137 384.989166,688.945435 380.357941,680.920044 
	C378.711273,678.066589 378.845184,674.486450 378.900513,671.120972 
	C379.029999,663.247986 376.333954,656.346008 371.054138,650.616333 
	C363.737976,642.676880 357.255798,634.032837 348.878021,626.972900 
	C341.829285,621.032898 334.102570,617.530823 325.253296,615.954346 
	C321.646515,615.311768 317.977356,614.938171 314.429504,614.064758 
	C309.105591,612.754150 304.804840,609.916016 301.445770,605.366882 
	C292.858765,593.737244 286.301575,581.068665 281.310059,567.554443 
	C275.925568,552.976440 270.031433,538.559875 260.562134,526.148254 
	C252.514236,515.599792 244.397751,505.081238 235.658798,495.032104 
	C228.914261,487.276428 220.445984,481.071808 215.246292,471.901917 
	C208.283478,459.622681 205.899429,446.583801 211.245956,433.543884 
	C216.220886,421.410156 225.271484,413.025635 239.430740,411.991943 
	C242.891983,411.739288 246.323120,410.876953 249.729401,410.120636 
	C253.691772,409.240845 257.493927,408.821228 261.468933,410.457916 
	C266.499664,412.529236 269.114746,408.579315 271.832031,405.497925 
	C276.501953,400.202393 276.414154,400.165558 280.398254,406.190247 
	C281.518494,407.884277 283.013916,409.561615 285.196198,409.186707 
	C287.195862,408.843170 286.966919,406.612885 287.423309,405.084869 
	C288.660858,400.941589 288.179871,397.356506 284.702759,394.209351 
	C281.169312,391.011230 280.716492,386.528870 281.567566,382.169250 
	C282.859100,375.553375 283.393341,369.035492 282.148651,362.334290 
	C281.408051,358.346863 282.657684,354.398773 283.663239,350.519806 
	C284.080719,348.909302 285.072601,347.193176 284.809479,345.700256 
	C282.218414,330.998291 286.756226,316.121368 283.617188,301.452911 
	C282.841034,297.826080 282.939941,294.182129 283.572479,290.524170 
	C284.786041,283.505920 287.369751,276.794983 287.410370,269.474243 
	C287.430725,265.813507 289.607025,262.456726 294.045624,261.819946 
	C295.627350,261.593018 296.880249,260.721924 297.633942,259.352295 
	C302.409302,250.674210 308.704498,243.567566 316.647552,237.409744 
	C322.574005,232.815262 325.723145,225.261292 331.122131,219.749863 
	C334.850677,215.943710 339.043793,212.701218 342.787384,208.940872 
	C344.597992,207.122177 347.208740,207.736145 349.498474,207.935318 
	C353.555603,208.288223 357.409424,208.075989 361.129517,206.052460 
	C364.666779,204.128387 368.528473,204.533279 371.562012,206.884766 
	C378.362427,212.156219 386.048035,213.047531 394.191467,212.490173 
	C394.840973,212.445740 395.510681,212.496338 396.151062,212.612717 
	C396.428467,212.663116 396.655090,212.992844 397.215607,213.448349 
	C394.015381,216.641678 391.919098,220.431061 388.333008,223.311050 
	C383.934967,226.843094 380.691132,231.943848 376.552948,235.590042 
	C371.036682,240.450562 367.449951,246.464874 363.139587,252.051315 
	C358.205322,258.446442 353.709137,264.970642 350.876770,272.844330 
	C348.988953,278.092163 345.221863,282.872284 343.317444,288.311493 
	C341.560364,293.329803 339.839264,298.521698 337.871002,303.296631 
	C335.318848,309.488098 337.140259,316.518158 333.021027,322.085602 
	C331.884338,323.621918 332.334320,325.643768 332.330658,327.457916 
	C332.296814,344.290192 332.311340,361.122620 332.280823,377.954926 
	C332.266449,385.879395 335.808167,393.040131 337.090973,400.704468 
	C338.475525,408.976593 342.316772,416.558014 345.619293,424.143402 
	C349.575195,433.229340 353.885956,442.219086 360.139038,450.231506 
	C363.875183,455.018829 366.660370,460.800690 371.063782,464.945984 
	C378.661835,472.098755 384.132019,481.506500 394.031799,486.259674 
	C389.314819,481.385223 384.466827,476.628937 379.926178,471.595398 
	C376.815674,468.147247 374.132477,464.313538 371.259186,460.651459 
	C370.413177,459.573181 369.443634,458.248566 370.259186,457.022247 
	C373.475525,452.186157 371.059418,445.827362 375.422729,440.831055 
	C381.741638,445.718719 385.453003,453.559479 392.297394,458.411774 
	C386.596893,450.400177 380.842041,442.426544 375.216309,434.362762 
	C371.841614,429.525543 369.948212,423.941772 367.513519,418.620453 
	C365.727325,414.716522 365.482849,410.001892 361.890686,406.992798 
	C361.025574,406.268097 360.730530,405.385834 360.723541,404.373291 
	C360.696259,400.427429 358.575653,396.528931 358.377441,393.229126 
	C357.879181,384.934387 353.775726,377.437042 354.503357,368.905762 
	C355.293549,359.640747 354.631165,350.255280 354.684021,340.922791 
	C354.718414,334.853851 353.848175,328.656799 357.085175,322.984161 
	C357.549744,322.170074 357.637634,321.058807 357.650116,320.081879 
	C357.750580,312.214294 360.308594,305.138367 363.784119,298.146484 
	C365.259857,295.177734 366.569977,291.826691 367.368561,288.630127 
	C368.790924,282.936554 372.622650,278.707886 375.063263,273.676025 
	C376.983215,269.717651 379.120209,265.555847 383.584656,263.518372 
	C383.012115,266.617767 383.533630,269.477997 383.310394,272.285919 
	C382.981598,276.420776 384.753632,277.907562 388.852753,277.799530 
	C396.845215,277.588867 404.847351,277.712891 412.845123,277.761505 
	C414.615875,277.772278 417.330597,277.281250 417.633026,279.354004 
	C418.210815,283.313873 422.074097,285.893860 421.542816,290.306732 
	C421.328705,292.084930 422.297821,294.253632 423.309174,295.884521 
	C426.258148,300.640106 427.151611,306.276825 427.856506,311.343170 
	C428.589172,316.609070 430.955139,321.187042 432.134796,326.160858 
	C433.888824,333.556366 436.468567,340.862457 438.280060,348.323547 
	C438.597443,349.630615 439.107697,350.809021 439.532990,352.047913 
	C441.244598,357.033203 443.485077,361.999542 444.123230,367.147278 
	C444.833282,372.874969 447.656494,377.845795 448.485352,383.525391 
	C449.330505,389.316742 451.783936,394.860535 453.347534,400.563599 
	C454.832489,405.979889 455.472687,412.205505 458.153595,416.568665 
	C461.232910,421.580170 458.863983,424.323608 456.415405,426.271515 
	C451.072052,430.522339 450.203033,435.649139 450.213959,441.911865 
	C450.233582,453.147675 463.482635,457.403229 471.428162,453.776459 
	C474.365723,452.435638 479.473724,450.921051 479.549377,446.114563 
	C479.643280,440.146179 481.059631,433.973114 477.577789,428.231201 
	C499.333618,428.231201 520.675659,428.231201 542.017700,428.231201 
	C534.143372,431.390747 535.576355,436.272186 538.863342,441.647125 
	C539.196411,442.191681 539.323608,442.914551 539.378662,443.568756 
	C540.170288,452.977356 546.135864,456.567719 554.704285,457.432404 
	C557.480286,457.712555 559.737000,458.013916 559.629944,454.037903 
	C559.545288,450.891998 561.822571,450.622345 563.572266,452.258301 
	C567.123657,455.578888 571.300049,454.760376 575.359131,454.736633 
	C584.602905,454.682648 588.331299,450.467224 588.860291,441.360046 
	C589.263489,434.419952 586.149231,427.866913 587.786316,420.729004 
	C588.783875,416.379272 591.142944,412.066772 591.263794,408.097961 
	C591.577515,397.800659 598.452820,389.191559 597.737427,378.866730 
	C597.715576,378.551483 597.775146,378.123383 597.972900,377.915802 
	C602.422180,373.245239 601.204468,366.561584 604.091003,361.095184 
	C607.475830,354.684937 607.847168,346.894104 609.893433,339.777863 
	C611.043335,335.779022 613.807983,331.937988 613.456970,327.885834 
	C612.927429,321.773590 616.352722,316.958588 617.677917,311.523438 
	C619.454163,304.238373 620.182739,304.338501 612.306580,304.337433 
	C568.317261,304.331451 524.327881,304.326721 480.338531,304.322662 
	C479.172241,304.322571 478.005707,304.321503 476.839752,304.345276 
	C473.077423,304.421967 472.237061,307.535614 473.839569,309.388306 
	C476.519836,312.486969 476.076508,315.745422 476.344604,319.133484 
	C476.881073,325.912659 479.873962,328.653473 486.584259,328.666840 
	C518.076355,328.729706 549.568420,328.793579 581.060486,328.855133 
	C583.392456,328.859680 585.733704,328.716125 588.054138,328.878235 
	C591.143127,329.094086 591.899353,331.510162 590.435852,333.409027 
	C588.513123,335.903656 588.349731,338.526031 588.118286,341.291016 
	C587.672607,346.615967 586.046997,348.199280 580.507629,348.253601 
	C573.510010,348.322205 566.511169,348.272095 559.512878,348.275574 
	C537.184937,348.286682 514.856934,348.273315 492.529114,348.326813 
	C486.124939,348.342163 485.443390,349.977325 486.011414,356.151581 
	C486.386475,360.228668 489.650024,362.944122 489.458282,367.152435 
	C489.209045,372.622772 492.683228,375.732361 498.151337,375.812714 
	C501.816467,375.866547 505.487396,375.986206 509.147430,375.851288 
	C530.293640,375.071777 551.294312,376.583313 572.207947,379.645538 
	C573.697327,379.863617 575.138306,379.679810 575.806335,381.571411 
	C577.739685,387.046173 574.236816,392.751007 568.539551,393.153259 
	C566.714172,393.282135 564.875916,393.253052 563.043518,393.253510 
	C540.382324,393.259033 517.721191,393.257843 495.059998,393.255676 
	C488.228333,393.255005 481.396454,393.273407 474.565155,393.222443 
	C472.782990,393.209137 470.049194,393.480988 470.068359,391.226990 
	C470.109070,386.447449 467.014099,382.292969 467.017120,378.093201 
	C467.021820,371.485779 462.114868,366.128845 463.400421,359.509583 
	C463.455109,359.227997 463.237946,358.866821 463.084808,358.575653 
	C459.706268,352.152100 459.719757,344.705353 456.904053,338.087402 
	C456.160919,336.340820 457.108917,333.585510 456.052490,332.311646 
	C451.550720,326.883270 453.499573,319.887360 451.207825,313.776428 
	C449.078217,308.097992 446.865997,301.716309 447.022797,294.899017 
	C447.099915,291.543304 445.476532,287.144196 443.534088,283.938477 
	C441.507568,280.593933 440.589478,277.457306 440.625854,273.682434 
	C440.690887,266.937317 437.107910,263.395874 430.498138,263.340393 
	C415.009705,263.210480 399.521149,263.092957 384.032654,262.970459 
M466.210510,523.798584 
	C472.479553,527.218445 479.646271,525.760315 486.348267,527.324280 
	C493.758972,529.053650 501.877930,527.774780 509.688171,527.743347 
	C511.294983,527.736877 513.523499,528.173767 514.114319,526.318237 
	C515.230408,522.812988 515.410950,518.921021 514.136475,515.561829 
	C513.068359,512.746704 509.813324,512.446777 506.856720,512.283630 
	C500.001678,511.905365 493.227142,512.065674 486.269928,510.826477 
	C478.697662,509.477722 471.618256,506.628235 464.109558,505.462280 
	C462.147339,505.157593 460.787445,502.234100 458.325439,504.176819 
	C460.869659,507.608765 466.175751,505.812561 468.203796,509.079498 
	C469.087463,522.226868 459.958893,520.025513 451.963898,520.210815 
	C456.781860,521.090759 460.581940,524.179565 466.210510,523.798584 
M662.593933,406.375793 
	C659.815369,414.445160 656.696777,422.389923 652.200317,429.662903 
	C647.099304,437.913605 642.139954,446.287872 635.870117,453.741516 
	C634.130432,455.809723 632.510559,457.956085 630.394714,459.806091 
	C628.357605,461.587250 628.933838,464.788025 630.154114,467.294464 
	C632.049255,471.187256 635.676208,469.398682 638.612488,469.545898 
	C641.204590,469.675781 642.464966,467.962219 642.671570,465.448212 
	C642.768311,464.271332 643.046021,463.387207 644.275818,462.640106 
	C649.688721,459.351685 652.439026,453.712097 655.578186,448.620148 
	C659.173035,442.789124 661.523987,435.913055 665.508545,430.628540 
	C670.374695,424.174988 670.321716,416.248138 674.407471,409.840942 
	C674.953430,408.984863 675.012817,407.357483 673.783630,406.164459 
	C671.377075,411.907166 669.255615,417.500214 666.714355,422.895569 
	C663.748169,429.192993 661.434692,435.842499 657.107788,441.451111 
	C655.342041,443.739746 653.111267,444.784515 650.625122,443.210999 
	C648.004150,441.552216 649.534912,439.095764 650.757568,437.543518 
	C655.687256,431.284729 657.326416,423.469391 660.985107,416.616394 
	C662.607300,413.577820 663.393494,410.082214 664.455505,406.760895 
	C664.842590,405.550171 664.705322,405.506287 662.593933,406.375793 
M621.453613,219.092133 
	C617.838684,216.116287 613.981689,213.510849 609.507874,211.589020 
	C636.652100,232.864578 657.638245,258.913696 669.895935,291.163940 
	C682.189514,323.508606 685.437378,356.914948 677.614807,390.946014 
	C679.509766,391.286896 680.273987,390.508575 680.416138,389.506317 
	C681.526123,381.680969 683.510864,373.822113 683.355713,366.010773 
	C683.106567,353.471588 684.463562,340.942200 681.985046,328.302979 
	C680.431763,320.382019 677.033020,312.691559 677.511169,304.367249 
	C677.536194,303.931671 677.262512,303.323364 676.923157,303.046295 
	C673.051270,299.885101 673.204773,294.594604 672.250854,290.736115 
	C670.486328,283.598572 666.795227,277.499603 663.561462,271.475006 
	C659.293213,263.523132 655.042053,255.266190 648.737610,248.423737 
	C643.173462,242.384781 639.319885,234.821045 632.701172,229.714249 
	C628.754211,226.668961 625.605164,222.877975 621.453613,219.092133 
M663.826355,297.466492 
	C658.692749,284.079895 652.497314,271.251862 644.096558,259.559570 
	C631.820862,242.474136 616.588867,228.541153 598.715576,217.571060 
	C593.507629,214.374573 588.333191,210.877060 582.261414,209.234024 
	C589.532715,213.981079 597.365295,217.840805 604.437561,222.787460 
	C615.187866,230.306717 624.263000,239.762741 633.215576,249.366699 
	C639.073975,255.651321 644.259399,262.680847 648.410217,269.764130 
	C653.688965,278.772461 659.611084,288.030121 661.433289,298.823029 
	C661.785645,300.909882 663.019165,302.167938 665.573608,302.897156 
	C664.983398,300.925323 664.561829,299.516632 663.826355,297.466492 
M673.759521,354.260559 
	C673.527466,342.331238 673.271667,330.404999 669.391541,318.920532 
	C668.338135,321.164001 667.845642,323.460876 668.861633,325.649750 
	C671.896179,332.187531 671.273254,339.120850 671.378174,346.003967 
	C671.460144,351.378021 670.871826,356.797028 671.945129,362.663574 
	C673.920410,360.058868 673.635315,357.566498 673.759521,354.260559 
M581.680298,338.930176 
	C582.172180,336.417053 584.660278,333.295319 580.137329,332.140076 
	C578.306885,331.672546 576.030029,331.724365 574.704285,333.659912 
	C573.560181,335.330261 574.430054,336.861603 575.560852,338.162445 
	C577.119446,339.955414 578.728394,341.863251 581.680298,338.930176 
M677.555664,401.191803 
	C677.555664,398.979279 677.555664,396.766724 677.555664,394.554199 
	C676.105408,396.836884 675.441284,399.163483 674.876953,401.514038 
	C674.666016,402.392609 675.019348,403.241241 675.990662,403.384796 
	C677.016785,403.536469 677.370911,402.731140 677.555664,401.191803 
M665.423889,310.421936 
	C665.470032,311.902344 665.471619,313.415955 667.873047,313.411011 
	C668.431030,310.929016 667.608337,309.021606 665.631042,306.411774 
	C665.523132,308.195892 665.475647,308.980774 665.423889,310.421936 
z"/>
<path fill="#000000" opacity="1.000000" stroke="none" 
	d="
M742.984985,92.007782 
	C754.327332,104.661957 769.735229,112.639275 779.175293,126.673035 
	C794.006226,148.720779 805.246216,172.251343 809.244873,198.940506 
	C812.747009,222.315399 811.946716,245.772903 811.905457,269.233337 
	C811.897827,273.570587 810.848816,277.876617 809.151550,281.879303 
	C802.269653,298.109100 798.166504,315.030792 796.228394,332.509247 
	C795.729553,337.008606 794.270264,340.210358 788.790527,339.665924 
	C785.842163,339.373047 784.786804,341.846832 784.303284,344.160980 
	C783.486572,348.070160 782.830383,352.048187 783.218689,356.070831 
	C785.017090,374.701904 783.573303,393.374908 783.997742,412.022827 
	C784.071472,415.262817 783.034363,418.242493 782.075928,421.268097 
	C780.763367,425.411438 778.814453,428.107391 773.715332,428.172852 
	C768.513184,428.239624 765.539978,426.136993 763.865723,421.536377 
	C762.084473,416.641693 761.049622,411.593781 761.006775,406.382507 
	C760.968018,401.676178 758.804382,400.110199 754.120483,398.525330 
	C745.485596,395.603668 743.026794,401.220978 739.386536,406.325256 
	C737.760681,408.604980 736.720276,413.176361 733.356873,411.910828 
	C730.020508,410.655487 732.033020,406.522125 732.721375,403.919586 
	C735.854004,392.075562 735.999512,380.050842 735.849731,367.936554 
	C735.808899,364.636169 738.804993,361.698853 737.669373,358.010223 
	C734.594238,348.021759 737.689697,337.277466 735.111511,327.684723 
	C733.091553,320.169098 732.852539,312.302643 729.961548,304.837128 
	C728.085999,299.993988 726.641907,294.481842 725.279602,289.225067 
	C724.221863,285.143433 723.359070,280.599152 720.741699,276.794708 
	C718.871155,274.075775 718.599670,270.572571 717.013367,267.480804 
	C713.327393,260.296783 709.549622,253.160416 705.792725,246.008865 
	C701.376953,237.603271 694.237732,231.058014 690.073486,222.441498 
	C689.287354,220.814835 687.405945,218.878769 684.924255,217.092072 
	C684.575500,220.334213 686.502563,221.818390 687.746033,223.503082 
	C699.434509,239.339066 709.885681,255.869614 717.265503,274.233795 
	C718.562195,277.460480 718.192505,281.056580 720.385254,284.117645 
	C721.744690,286.015442 719.924622,287.489227 717.792297,287.786438 
	C711.203857,288.704681 707.830139,292.553925 707.272034,299.079956 
	C707.053101,301.640167 706.335693,303.957672 704.122131,305.610352 
	C702.498047,306.822906 702.058655,308.554657 702.420227,310.522430 
	C702.689026,311.984863 703.023499,313.474854 701.754150,314.673401 
	C699.728760,314.741821 699.644836,313.126312 699.370544,311.963165 
	C694.444275,291.078796 686.256592,271.534485 675.053528,253.273849 
	C662.863098,233.403885 647.603821,216.245316 629.535889,201.452316 
	C605.352905,181.652649 577.730957,169.501740 547.434326,162.657303 
	C541.608337,161.341110 535.594727,160.995102 529.913330,159.044830 
	C528.381287,158.518906 526.684448,158.378586 524.980225,156.756241 
	C528.836853,155.745483 532.323853,155.054718 535.652832,153.906021 
	C540.447083,152.251663 541.146606,150.367554 539.272949,145.568832 
	C537.673096,141.471313 538.625000,139.890030 543.026062,140.229065 
	C546.489868,140.495880 549.900391,141.444916 553.336914,142.078201 
	C556.150269,142.596680 556.986938,144.350571 557.030457,147.092941 
	C557.125732,153.092224 563.797913,161.104950 569.108704,163.880127 
	C574.262817,166.573486 579.560425,168.445740 585.014954,170.317078 
	C592.069397,172.737335 594.023071,172.530838 597.884216,165.734863 
	C594.148254,162.169388 591.240601,157.964813 589.047913,152.864853 
	C603.072510,157.259399 616.150208,163.468277 629.050476,170.241455 
	C627.475586,166.004883 623.721497,164.853607 620.243225,163.439896 
	C619.065552,162.961227 617.750061,163.070175 616.566833,162.190811 
	C605.277283,153.800827 591.657349,150.329117 578.759521,145.943558 
	C567.453003,142.099106 555.626648,139.146790 543.373596,137.771179 
	C534.782288,136.806656 526.257935,136.954437 517.733215,136.233551 
	C515.988953,136.086044 513.856995,136.770279 512.770508,134.754303 
	C511.733704,132.830673 513.279907,131.737259 514.458313,130.541351 
	C514.883850,130.109451 515.403687,129.234024 515.234680,128.833679 
	C512.950989,123.424706 517.339966,121.857697 520.478577,119.613930 
	C524.304993,116.878448 528.357727,114.312599 533.102417,113.901634 
	C542.264160,113.108063 549.429932,108.637123 555.826660,102.518410 
	C563.296265,95.373528 570.376770,88.005989 575.727844,78.942444 
	C580.610596,70.672203 586.960205,63.990211 597.608154,62.467056 
	C609.104919,60.822475 619.669739,56.213581 629.121582,49.251114 
	C642.155640,39.649887 656.907227,38.022499 672.416931,40.233429 
	C675.260071,40.638718 677.871582,41.788315 680.201782,43.468594 
	C686.729919,48.175934 693.823792,51.923008 701.217285,54.956779 
	C710.314758,58.689793 717.069946,65.091499 723.505737,72.219208 
	C729.625122,78.996407 736.277954,85.291954 742.984985,92.007782 
M603.961853,178.324814 
	C609.795410,182.381348 614.953552,187.274551 620.505615,191.670959 
	C626.471680,196.395187 629.017273,195.264359 630.069275,187.974518 
	C630.187439,187.155548 630.444641,186.357422 630.582458,185.540375 
	C631.290771,181.340912 624.889648,173.853317 621.149414,175.458954 
	C616.200989,177.583298 613.483276,175.058151 610.094849,172.876190 
	C608.617859,171.925049 606.933533,170.655167 605.045776,171.915909 
	C602.909546,173.342606 602.842896,175.444595 603.961853,178.324814 
M656.433411,188.119598 
	C648.577759,181.997849 640.609192,176.044403 630.953003,170.489975 
	C636.261169,177.942032 636.281860,177.890869 643.413879,180.771500 
	C644.921143,181.380280 646.414551,182.310059 647.577209,183.439133 
	C655.894592,191.516312 665.972717,197.626938 673.390198,206.725327 
	C675.392456,209.181366 677.971313,211.167282 680.285461,213.368988 
	C674.447693,203.185654 665.782837,195.804565 656.433411,188.119598 
M646.610657,201.352844 
	C649.709595,203.503967 650.682251,200.994156 651.483154,198.902863 
	C652.057922,197.402054 651.043030,196.253906 649.434143,196.295486 
	C646.551147,196.370026 645.892517,198.216232 646.610657,201.352844 
M640.552795,199.983200 
	C638.362183,198.897278 636.629639,199.106461 636.388977,201.906525 
	C636.244568,203.586792 637.343506,204.842133 639.089355,204.590714 
	C641.519348,204.240768 642.496338,202.830536 640.552795,199.983200 
z"/>
<path fill="#000000" opacity="1.000000" stroke="none" 
	d="
M822.975952,492.868347 
	C823.764771,511.153961 815.831726,525.146301 804.567078,538.213989 
	C797.047729,546.936890 789.111084,555.192566 781.139160,563.456482 
	C778.531555,566.159668 775.622681,568.269226 771.915466,566.367920 
	C768.297485,564.512329 768.868042,560.800110 769.225464,557.465454 
	C770.013916,550.108887 771.610840,542.732117 775.241577,536.441345 
	C781.359497,525.841492 780.695496,514.040833 783.204590,502.797852 
	C786.811646,486.634491 782.688721,471.032684 782.152710,455.187042 
	C782.012085,451.030609 781.448608,446.844635 783.554932,442.953339 
	C784.985107,440.311096 786.829041,438.799377 790.036499,440.230408 
	C791.068359,440.690826 792.281494,440.845581 793.427673,440.933960 
	C806.315247,441.927521 819.478455,453.285400 821.540039,465.989441 
	C822.627441,472.690399 822.554688,479.582489 822.946716,486.391663 
	C823.061401,488.384857 822.973511,490.389679 822.975952,492.868347 
z"/>
<path fill="#000000" opacity="1.000000" stroke="none" 
	d="
M700.604431,629.892944 
	C700.656677,634.936768 696.999573,637.801270 693.693909,639.892029 
	C688.567383,643.134583 683.670105,646.954285 677.842529,649.027588 
	C675.974731,649.692078 674.090149,650.520630 672.153809,650.733521 
	C668.941284,651.086670 665.601440,650.711487 663.780823,647.630005 
	C662.016541,644.643860 664.879395,642.762329 666.284912,640.675781 
	C671.215759,633.355652 679.130432,631.616394 687.000549,630.263550 
	C691.352661,629.515503 695.890137,629.845947 700.604431,629.892944 
z"/>
<path fill="#000000" opacity="1.000000" stroke="none" 
	d="
M367.313171,502.712891 
	C371.774963,506.283508 375.964935,509.627380 380.154907,512.971252 
	C379.915985,513.424072 379.677032,513.876831 379.438110,514.329651 
	C375.451111,513.294250 371.444305,512.325073 367.499298,511.148804 
	C366.934906,510.980499 366.374084,509.836456 366.310150,509.100677 
	C365.576996,500.662933 358.583160,498.653717 352.518555,496.080322 
	C349.623383,494.851837 347.645996,493.110199 347.858612,490.411896 
	C348.193329,486.163879 345.948212,483.750793 343.007599,481.807861 
	C338.121735,478.579651 335.195374,474.088196 333.930664,468.562256 
	C333.259338,465.629272 330.235413,463.874481 330.737244,460.326355 
	C341.671478,475.432983 353.629059,489.596497 367.313171,502.712891 
z"/>
<path fill="#000000" opacity="1.000000" stroke="none" 
	d="
M310.718994,288.228455 
	C312.018646,286.493225 313.013641,284.948639 315.965576,283.756561 
	C313.057648,289.835785 312.475647,295.830872 308.818329,300.756226 
	C307.665619,296.381805 310.795807,292.716064 310.718994,288.228455 
z"/>
<path fill="#000000" opacity="1.000000" stroke="none" 
	d="
M304.843567,312.444153 
	C305.527985,311.390717 305.586151,310.127747 307.827911,310.316284 
	C305.710175,314.791534 307.004913,319.909637 303.610474,325.088928 
	C300.996429,319.983185 304.246429,316.482788 304.843567,312.444153 
z"/>
<path fill="#000000" opacity="1.000000" stroke="none" 
	d="
M728.069946,422.546143 
	C728.923462,421.611938 729.292847,420.381927 730.550232,420.930695 
	C731.678894,421.423340 731.575439,422.532196 731.270935,423.474701 
	C730.413513,426.128418 728.921509,428.426147 726.838440,431.274994 
	C725.839111,427.786560 725.208252,425.127930 728.069946,422.546143 
z"/>
<path fill="#000000" opacity="1.000000" stroke="none" 
	d="
M453.226685,386.734436 
	C451.251038,383.995392 450.823425,380.964478 450.011658,378.113861 
	C447.245026,368.398254 444.970093,358.531555 441.894897,348.918518 
	C439.694611,342.040527 438.730682,334.932953 436.179504,327.419342 
	C443.883667,333.868103 445.318848,333.746490 450.141785,326.016357 
	C457.537170,344.418671 461.931915,362.809906 463.574982,381.951141 
	C461.254120,382.066956 461.257446,379.148468 459.154816,378.803558 
	C456.526917,379.743164 456.161285,382.313843 455.294312,384.610504 
	C454.956177,385.506317 455.928101,387.711761 453.226685,386.734436 
z"/>
<path fill="#000000" opacity="1.000000" stroke="none" 
	d="
M480.705872,420.254944 
	C489.761627,420.069061 498.032867,423.089752 506.707916,422.853241 
	C506.693878,423.277893 506.679840,423.702576 506.665802,424.127228 
	C498.178223,424.127228 489.690552,424.142609 481.203064,424.109283 
	C480.037659,424.104706 478.741455,423.925049 478.556610,422.428406 
	C478.411133,421.250793 479.315491,420.697052 480.705872,420.254944 
z"/>
<path fill="#000000" opacity="1.000000" stroke="none" 
	d="
M611.290527,315.185120 
	C611.438965,311.834473 613.074280,309.439148 614.890198,307.112732 
	C614.554443,310.252777 616.037354,314.122894 611.290527,315.185120 
z"/>
</svg>